<?xml version="1.0" standalone="no"?>
<!DOCTYPE svg PUBLIC "-//W3C//DTD SVG 20010904//EN"
 "http://www.w3.org/TR/2001/REC-SVG-20010904/DTD/svg10.dtd">
<svg version="1.0" xmlns="http://www.w3.org/2000/svg"
 width="162.000000pt" height="94.000000pt" viewBox="0 0 162.000000 94.000000"
 preserveAspectRatio="xMidYMid meet">

<g transform="translate(0.000000,94.000000) scale(0.100000,-0.100000)"
fill="#000000" stroke="none">
<path d="M0 705 l0 -236 43 29 c23 16 65 41 92 56 28 15 68 38 90 51 42 26 80
32 90 15 10 -16 -11 -36 -69 -68 -28 -16 -81 -46 -118 -67 l-68 -39 0 -140 c0
-78 -4 -147 -9 -155 -5 -8 -18 -12 -30 -8 -20 5 -21 1 -21 -69 l0 -74 135 0
135 0 -1 160 c0 88 3 164 6 169 3 5 45 32 93 59 48 27 148 84 222 127 168 98
200 115 220 115 17 0 52 -17 150 -75 36 -21 92 -54 125 -72 33 -19 105 -60
160 -92 l100 -57 3 -167 2 -167 135 0 135 0 0 74 c0 70 -1 74 -21 69 -12 -4
-25 0 -30 8 -5 8 -9 77 -9 155 l0 140 -67 39 c-38 21 -91 51 -119 67 -58 32
-79 52 -69 68 16 26 77 -1 255 -112 l60 -38 0 235 0 235 -402 0 -403 0 107
-63 c59 -34 121 -70 138 -79 31 -18 42 -58 15 -58 -19 0 -61 19 -110 49 -65
40 -144 81 -156 81 -7 0 -46 -20 -88 -44 -137 -79 -151 -86 -171 -86 -28 0
-26 36 3 53 12 8 54 32 92 54 39 22 90 52 115 67 l45 26 -402 0 -403 0 0 -235z"/>
<path d="M690 509 c-58 -34 -157 -91 -220 -126 -63 -36 -123 -72 -132 -81 -16
-13 -18 -35 -18 -159 l0 -143 105 0 104 0 3 92 3 92 125 73 c150 88 147 87
163 79 6 -3 68 -38 137 -79 l125 -73 3 -92 3 -92 104 0 105 0 0 143 c0 124 -2
146 -17 159 -10 9 -70 45 -133 81 -63 35 -162 92 -220 126 -58 33 -112 61
-120 61 -8 0 -62 -28 -120 -61z"/>
<path d="M759 247 c-19 -13 -42 -26 -51 -30 -10 -3 -43 -22 -73 -42 l-55 -35
0 -70 0 -70 230 0 230 0 0 70 0 70 -55 35 c-30 20 -63 39 -73 42 -9 4 -32 17
-51 30 -19 13 -42 23 -51 23 -9 0 -32 -10 -51 -23z"/>
</g>
</svg>
